<mxfile host="app.diagrams.net" modified="2023-08-17T00:52:20.494Z" agent="Mozilla/5.0 (Windows NT 10.0; Win64; x64) AppleWebKit/537.36 (KHTML, like Gecko) Chrome/115.0.0.0 Safari/537.36" etag="BGkqQkenKBpfiwEGPrTN" version="21.6.8" type="github">
  <diagram name="Page-1" id="-TVLJoAP_eheoUgwRsk5">
    <mxGraphModel dx="1434" dy="750" grid="1" gridSize="10" guides="1" tooltips="1" connect="1" arrows="1" fold="1" page="1" pageScale="1" pageWidth="850" pageHeight="1100" math="0" shadow="0">
      <root>
        <mxCell id="0" />
        <mxCell id="1" parent="0" />
        <mxCell id="YUtBcPBd4sIPZbYD7p29-1" value="" style="ellipse;html=1;shape=startState;fillColor=#000000;strokeColor=#ff0000;" parent="1" vertex="1">
          <mxGeometry x="410" width="30" height="30" as="geometry" />
        </mxCell>
        <mxCell id="YUtBcPBd4sIPZbYD7p29-2" value="" style="edgeStyle=orthogonalEdgeStyle;html=1;verticalAlign=bottom;endArrow=open;endSize=8;strokeColor=#ff0000;rounded=0;" parent="1" source="YUtBcPBd4sIPZbYD7p29-1" edge="1">
          <mxGeometry relative="1" as="geometry">
            <mxPoint x="425" y="80" as="targetPoint" />
          </mxGeometry>
        </mxCell>
        <mxCell id="YUtBcPBd4sIPZbYD7p29-3" value="POLICE ON SITE" style="rounded=1;whiteSpace=wrap;html=1;arcSize=40;fontColor=#000000;fillColor=#ffffc0;strokeColor=#ff0000;" parent="1" vertex="1">
          <mxGeometry x="365" y="80" width="120" height="40" as="geometry" />
        </mxCell>
        <mxCell id="YUtBcPBd4sIPZbYD7p29-4" value="" style="edgeStyle=orthogonalEdgeStyle;html=1;verticalAlign=bottom;endArrow=open;endSize=8;strokeColor=#ff0000;rounded=0;" parent="1" source="YUtBcPBd4sIPZbYD7p29-3" edge="1">
          <mxGeometry relative="1" as="geometry">
            <mxPoint x="425" y="160" as="targetPoint" />
          </mxGeometry>
        </mxCell>
        <mxCell id="YUtBcPBd4sIPZbYD7p29-5" value="Situation Context" style="rounded=1;whiteSpace=wrap;html=1;arcSize=40;fontColor=#000000;fillColor=#ffffc0;strokeColor=#ff0000;" parent="1" vertex="1">
          <mxGeometry x="5" y="20" width="120" height="40" as="geometry" />
        </mxCell>
        <mxCell id="YUtBcPBd4sIPZbYD7p29-6" value="" style="edgeStyle=orthogonalEdgeStyle;html=1;verticalAlign=bottom;endArrow=open;endSize=8;strokeColor=#ff0000;rounded=0;" parent="1" edge="1">
          <mxGeometry relative="1" as="geometry">
            <mxPoint x="64.5" y="240" as="targetPoint" />
            <mxPoint x="65" y="180" as="sourcePoint" />
          </mxGeometry>
        </mxCell>
        <mxCell id="YUtBcPBd4sIPZbYD7p29-7" value="Flow" style="edgeLabel;html=1;align=center;verticalAlign=middle;resizable=0;points=[];" parent="YUtBcPBd4sIPZbYD7p29-6" vertex="1" connectable="0">
          <mxGeometry x="-0.3333" y="3" relative="1" as="geometry">
            <mxPoint x="-2" y="10" as="offset" />
          </mxGeometry>
        </mxCell>
        <mxCell id="YUtBcPBd4sIPZbYD7p29-8" value="Start Point" style="ellipse;html=1;shape=startState;fillColor=#000000;strokeColor=#ff0000;" parent="1" vertex="1">
          <mxGeometry x="50" y="250" width="30" height="30" as="geometry" />
        </mxCell>
        <mxCell id="YUtBcPBd4sIPZbYD7p29-9" value="End Point" style="ellipse;html=1;shape=endState;fillColor=#000000;strokeColor=#ff0000;" parent="1" vertex="1">
          <mxGeometry x="50" y="290" width="30" height="30" as="geometry" />
        </mxCell>
        <mxCell id="YUtBcPBd4sIPZbYD7p29-10" value="STEP" style="shape=umlFrame;whiteSpace=wrap;html=1;pointerEvents=0;" parent="1" vertex="1">
          <mxGeometry y="70" width="130" height="90" as="geometry" />
        </mxCell>
        <mxCell id="YUtBcPBd4sIPZbYD7p29-11" value="DISCLAIMER" style="swimlane;fontStyle=0;childLayout=stackLayout;horizontal=1;startSize=26;fillColor=#e51400;horizontalStack=0;resizeParent=1;resizeParentMax=0;resizeLast=0;collapsible=1;marginBottom=0;whiteSpace=wrap;html=1;fontColor=#ffffff;strokeColor=#B20000;" parent="1" vertex="1">
          <mxGeometry x="650" y="20" width="190" height="170" as="geometry" />
        </mxCell>
        <mxCell id="YUtBcPBd4sIPZbYD7p29-12" value="THIS MODULE IS DESIGNED TO TEST AND REFINE YOUR DECISION MAKING. &lt;br&gt;&lt;br&gt;THE MODULE USES GENERAL PROCEDURES, REFER TO YOUR RESPECTIVE BUILDING PROTOCOLS AND ADHERE TO THEM DURING DUTY" style="text;strokeColor=#B20000;fillColor=#e51400;align=center;verticalAlign=top;spacingLeft=4;spacingRight=4;overflow=hidden;rotatable=0;points=[[0,0.5],[1,0.5]];portConstraint=eastwest;whiteSpace=wrap;html=1;fontColor=#ffffff;" parent="YUtBcPBd4sIPZbYD7p29-11" vertex="1">
          <mxGeometry y="26" width="190" height="144" as="geometry" />
        </mxCell>
        <mxCell id="YUtBcPBd4sIPZbYD7p29-13" value="" style="shape=line;html=1;strokeWidth=6;strokeColor=#ff0000;" parent="1" vertex="1">
          <mxGeometry x="8" y="450" width="122" height="10" as="geometry" />
        </mxCell>
        <mxCell id="YUtBcPBd4sIPZbYD7p29-14" value="" style="edgeStyle=orthogonalEdgeStyle;html=1;verticalAlign=bottom;endArrow=open;endSize=8;strokeColor=#ff0000;rounded=0;" parent="1" source="YUtBcPBd4sIPZbYD7p29-13" edge="1">
          <mxGeometry relative="1" as="geometry">
            <mxPoint x="70" y="520" as="targetPoint" />
            <Array as="points">
              <mxPoint x="69" y="510" />
              <mxPoint x="70" y="510" />
            </Array>
          </mxGeometry>
        </mxCell>
        <mxCell id="YUtBcPBd4sIPZbYD7p29-15" value="Fork" style="text;html=1;align=center;verticalAlign=middle;resizable=0;points=[];autosize=1;strokeColor=none;fillColor=none;" parent="1" vertex="1">
          <mxGeometry x="45" y="430" width="50" height="30" as="geometry" />
        </mxCell>
        <mxCell id="YUtBcPBd4sIPZbYD7p29-16" value="Condition" style="rhombus;whiteSpace=wrap;html=1;fontColor=#000000;fillColor=#ffffc0;strokeColor=#ff0000;" parent="1" vertex="1">
          <mxGeometry x="70" y="370" width="80" height="40" as="geometry" />
        </mxCell>
        <mxCell id="YUtBcPBd4sIPZbYD7p29-17" value="" style="edgeStyle=orthogonalEdgeStyle;html=1;align=left;verticalAlign=bottom;endArrow=open;endSize=8;strokeColor=#ff0000;rounded=0;" parent="1" source="YUtBcPBd4sIPZbYD7p29-16" edge="1">
          <mxGeometry x="-0.2549" y="10" relative="1" as="geometry">
            <mxPoint x="210" y="390" as="targetPoint" />
            <mxPoint as="offset" />
          </mxGeometry>
        </mxCell>
        <mxCell id="YUtBcPBd4sIPZbYD7p29-18" value="" style="edgeStyle=orthogonalEdgeStyle;html=1;align=left;verticalAlign=top;endArrow=open;endSize=8;strokeColor=#ff0000;rounded=0;" parent="1" edge="1">
          <mxGeometry x="0.2" y="60" relative="1" as="geometry">
            <mxPoint x="10" y="390" as="targetPoint" />
            <mxPoint x="70" y="390" as="sourcePoint" />
            <Array as="points">
              <mxPoint x="70" y="390" />
              <mxPoint x="70" y="390" />
            </Array>
            <mxPoint as="offset" />
          </mxGeometry>
        </mxCell>
        <mxCell id="YUtBcPBd4sIPZbYD7p29-19" value="YES" style="text;html=1;align=center;verticalAlign=middle;resizable=0;points=[];autosize=1;strokeColor=none;fillColor=none;" parent="1" vertex="1">
          <mxGeometry x="15" y="360" width="50" height="30" as="geometry" />
        </mxCell>
        <mxCell id="YUtBcPBd4sIPZbYD7p29-20" value="NO" style="text;html=1;align=center;verticalAlign=middle;resizable=0;points=[];autosize=1;strokeColor=none;fillColor=none;" parent="1" vertex="1">
          <mxGeometry x="160" y="360" width="40" height="30" as="geometry" />
        </mxCell>
        <mxCell id="YUtBcPBd4sIPZbYD7p29-21" style="edgeStyle=orthogonalEdgeStyle;rounded=0;orthogonalLoop=1;jettySize=auto;html=1;strokeColor=#FF0000;" parent="1" source="YUtBcPBd4sIPZbYD7p29-22" target="YUtBcPBd4sIPZbYD7p29-31" edge="1">
          <mxGeometry relative="1" as="geometry" />
        </mxCell>
        <mxCell id="YUtBcPBd4sIPZbYD7p29-22" value="STEP" style="shape=umlFrame;whiteSpace=wrap;html=1;pointerEvents=0;" parent="1" vertex="1">
          <mxGeometry x="200" y="230" width="160" height="150" as="geometry" />
        </mxCell>
        <mxCell id="YUtBcPBd4sIPZbYD7p29-23" style="edgeStyle=orthogonalEdgeStyle;rounded=0;orthogonalLoop=1;jettySize=auto;html=1;entryX=0.5;entryY=0;entryDx=0;entryDy=0;dashed=1;" parent="1" source="YUtBcPBd4sIPZbYD7p29-24" target="YUtBcPBd4sIPZbYD7p29-70" edge="1">
          <mxGeometry relative="1" as="geometry">
            <Array as="points">
              <mxPoint x="425" y="240" />
              <mxPoint x="708" y="240" />
            </Array>
          </mxGeometry>
        </mxCell>
        <mxCell id="YUtBcPBd4sIPZbYD7p29-24" value="Condition" style="rhombus;whiteSpace=wrap;html=1;fontColor=#000000;fillColor=#ffffc0;strokeColor=#ff0000;" parent="1" vertex="1">
          <mxGeometry x="385" y="160" width="80" height="40" as="geometry" />
        </mxCell>
        <mxCell id="YUtBcPBd4sIPZbYD7p29-25" value="" style="edgeStyle=orthogonalEdgeStyle;html=1;align=left;verticalAlign=bottom;endArrow=open;endSize=8;strokeColor=#ff0000;rounded=0;entryX=0.5;entryY=-0.021;entryDx=0;entryDy=0;entryPerimeter=0;" parent="1" source="YUtBcPBd4sIPZbYD7p29-24" target="YUtBcPBd4sIPZbYD7p29-40" edge="1">
          <mxGeometry x="-0.2549" y="10" relative="1" as="geometry">
            <mxPoint x="580" y="790" as="targetPoint" />
            <mxPoint as="offset" />
          </mxGeometry>
        </mxCell>
        <mxCell id="YUtBcPBd4sIPZbYD7p29-26" value="" style="edgeStyle=orthogonalEdgeStyle;html=1;align=left;verticalAlign=top;endArrow=open;endSize=8;strokeColor=#ff0000;rounded=0;" parent="1" edge="1">
          <mxGeometry x="0.2" y="60" relative="1" as="geometry">
            <mxPoint x="283" y="230" as="targetPoint" />
            <mxPoint x="385" y="180" as="sourcePoint" />
            <Array as="points">
              <mxPoint x="283" y="180" />
              <mxPoint x="283" y="230" />
            </Array>
            <mxPoint as="offset" />
          </mxGeometry>
        </mxCell>
        <mxCell id="YUtBcPBd4sIPZbYD7p29-27" value="IF DECLARED EMERGENCY" style="text;html=1;align=center;verticalAlign=middle;resizable=0;points=[];autosize=1;strokeColor=none;fillColor=none;" parent="1" vertex="1">
          <mxGeometry x="205" y="150" width="180" height="30" as="geometry" />
        </mxCell>
        <mxCell id="YUtBcPBd4sIPZbYD7p29-28" value="NON-EMERGENCY VISIT" style="text;html=1;align=center;verticalAlign=middle;resizable=0;points=[];autosize=1;strokeColor=none;fillColor=none;" parent="1" vertex="1">
          <mxGeometry x="465" y="150" width="160" height="30" as="geometry" />
        </mxCell>
        <mxCell id="YUtBcPBd4sIPZbYD7p29-29" value="&lt;div&gt;ASK THE OFFICER &lt;br&gt;&lt;/div&gt;&lt;div&gt;TYPE OF&amp;nbsp; EMERGENCY&lt;/div&gt;&lt;div&gt;AND GIVE ACCESS&amp;nbsp;&lt;/div&gt;&lt;div&gt;IMMEDIATELY&lt;br&gt;&lt;/div&gt;" style="text;html=1;align=center;verticalAlign=middle;resizable=0;points=[];autosize=1;strokeColor=none;fillColor=none;" parent="1" vertex="1">
          <mxGeometry x="200" y="260" width="160" height="70" as="geometry" />
        </mxCell>
        <mxCell id="YUtBcPBd4sIPZbYD7p29-30" style="edgeStyle=orthogonalEdgeStyle;rounded=0;orthogonalLoop=1;jettySize=auto;html=1;entryX=0.5;entryY=0;entryDx=0;entryDy=0;strokeColor=#FF0000;" parent="1" source="YUtBcPBd4sIPZbYD7p29-31" target="YUtBcPBd4sIPZbYD7p29-34" edge="1">
          <mxGeometry relative="1" as="geometry" />
        </mxCell>
        <mxCell id="YUtBcPBd4sIPZbYD7p29-31" value="STEP" style="shape=umlFrame;whiteSpace=wrap;html=1;pointerEvents=0;" parent="1" vertex="1">
          <mxGeometry x="215" y="440" width="130" height="90" as="geometry" />
        </mxCell>
        <mxCell id="YUtBcPBd4sIPZbYD7p29-32" value="&lt;div&gt;IN CASE OF &lt;br&gt;&lt;/div&gt;&lt;div&gt;MASTER KEY FOR &lt;br&gt;&lt;/div&gt;&lt;div&gt;EMERGENCY&lt;br&gt;&lt;/div&gt;" style="text;html=1;align=center;verticalAlign=middle;resizable=0;points=[];autosize=1;strokeColor=none;fillColor=none;" parent="1" vertex="1">
          <mxGeometry x="215" y="470" width="130" height="60" as="geometry" />
        </mxCell>
        <mxCell id="YUtBcPBd4sIPZbYD7p29-33" value="&lt;div&gt;(ASK FOR ID IF&amp;nbsp;&lt;/div&gt;&lt;div&gt;SITUATION UNDER&lt;/div&gt;&lt;div&gt;CONTROL)&lt;/div&gt;" style="text;html=1;align=center;verticalAlign=middle;resizable=0;points=[];autosize=1;strokeColor=none;fillColor=none;" parent="1" vertex="1">
          <mxGeometry x="215" y="320" width="130" height="60" as="geometry" />
        </mxCell>
        <mxCell id="YUtBcPBd4sIPZbYD7p29-34" value="Condition" style="rhombus;whiteSpace=wrap;html=1;fontColor=#000000;fillColor=#ffffc0;strokeColor=#ff0000;" parent="1" vertex="1">
          <mxGeometry x="240" y="570" width="80" height="40" as="geometry" />
        </mxCell>
        <mxCell id="YUtBcPBd4sIPZbYD7p29-35" value="" style="edgeStyle=orthogonalEdgeStyle;html=1;align=left;verticalAlign=bottom;endArrow=open;endSize=8;strokeColor=#ff0000;rounded=0;entryX=0.477;entryY=0.022;entryDx=0;entryDy=0;entryPerimeter=0;" parent="1" source="YUtBcPBd4sIPZbYD7p29-34" target="YUtBcPBd4sIPZbYD7p29-43" edge="1">
          <mxGeometry x="-0.2549" y="10" relative="1" as="geometry">
            <mxPoint x="420" y="590" as="targetPoint" />
            <mxPoint as="offset" />
            <Array as="points">
              <mxPoint x="352" y="590" />
            </Array>
          </mxGeometry>
        </mxCell>
        <mxCell id="YUtBcPBd4sIPZbYD7p29-36" value="" style="edgeStyle=orthogonalEdgeStyle;html=1;align=left;verticalAlign=top;endArrow=open;endSize=8;strokeColor=#ff0000;rounded=0;entryX=0.446;entryY=0;entryDx=0;entryDy=0;entryPerimeter=0;" parent="1" target="YUtBcPBd4sIPZbYD7p29-41" edge="1">
          <mxGeometry x="0.2" y="60" relative="1" as="geometry">
            <mxPoint x="170" y="620" as="targetPoint" />
            <mxPoint x="240" y="590" as="sourcePoint" />
            <Array as="points">
              <mxPoint x="208" y="590" />
            </Array>
            <mxPoint as="offset" />
          </mxGeometry>
        </mxCell>
        <mxCell id="YUtBcPBd4sIPZbYD7p29-37" value="LIFE THREATENING SITUATION" style="text;html=1;align=center;verticalAlign=middle;resizable=0;points=[];autosize=1;strokeColor=none;fillColor=none;" parent="1" vertex="1">
          <mxGeometry x="40" y="560" width="210" height="30" as="geometry" />
        </mxCell>
        <mxCell id="YUtBcPBd4sIPZbYD7p29-38" value="HOT PURSUIT / NON LIFE THREATENING" style="text;html=1;align=center;verticalAlign=middle;resizable=0;points=[];autosize=1;strokeColor=none;fillColor=none;" parent="1" vertex="1">
          <mxGeometry x="305" y="560" width="260" height="30" as="geometry" />
        </mxCell>
        <mxCell id="YUtBcPBd4sIPZbYD7p29-39" style="edgeStyle=orthogonalEdgeStyle;rounded=0;orthogonalLoop=1;jettySize=auto;html=1;entryX=0.5;entryY=0;entryDx=0;entryDy=0;strokeColor=#FF0000;" parent="1" source="YUtBcPBd4sIPZbYD7p29-40" target="YUtBcPBd4sIPZbYD7p29-46" edge="1">
          <mxGeometry relative="1" as="geometry">
            <Array as="points">
              <mxPoint x="580" y="890" />
              <mxPoint x="400" y="890" />
            </Array>
          </mxGeometry>
        </mxCell>
        <mxCell id="YUtBcPBd4sIPZbYD7p29-40" value="STEP" style="shape=umlFrame;whiteSpace=wrap;html=1;pointerEvents=0;" parent="1" vertex="1">
          <mxGeometry x="505" y="750" width="150" height="120" as="geometry" />
        </mxCell>
        <mxCell id="YUtBcPBd4sIPZbYD7p29-41" value="STEP" style="shape=umlFrame;whiteSpace=wrap;html=1;pointerEvents=0;" parent="1" vertex="1">
          <mxGeometry x="150" y="640" width="130" height="90" as="geometry" />
        </mxCell>
        <mxCell id="YUtBcPBd4sIPZbYD7p29-42" value="&lt;div&gt;GIVE MASTER KEY &lt;br&gt;&lt;/div&gt;&lt;div&gt;ACCESS, BRIEF PM &lt;br&gt;&lt;/div&gt;&lt;div&gt;IMMEDIATELY AFTER&lt;br&gt;&lt;/div&gt;" style="text;html=1;align=center;verticalAlign=middle;resizable=0;points=[];autosize=1;strokeColor=none;fillColor=none;" parent="1" vertex="1">
          <mxGeometry x="140" y="670" width="150" height="60" as="geometry" />
        </mxCell>
        <mxCell id="YUtBcPBd4sIPZbYD7p29-43" value="STEP" style="shape=umlFrame;whiteSpace=wrap;html=1;pointerEvents=0;" parent="1" vertex="1">
          <mxGeometry x="290" y="640" width="130" height="90" as="geometry" />
        </mxCell>
        <mxCell id="YUtBcPBd4sIPZbYD7p29-44" value="&lt;div&gt;GET CLEARANCE &lt;br&gt;&lt;/div&gt;&lt;div&gt;FROM PM&lt;/div&gt;&lt;div&gt;OR&lt;/div&gt;&lt;div&gt;GET WARRANT CARD&lt;br&gt;&lt;/div&gt;" style="text;html=1;align=center;verticalAlign=middle;resizable=0;points=[];autosize=1;strokeColor=none;fillColor=none;" parent="1" vertex="1">
          <mxGeometry x="280" y="665" width="150" height="70" as="geometry" />
        </mxCell>
        <mxCell id="YUtBcPBd4sIPZbYD7p29-45" value="&lt;div&gt;ASK PURPOSE OF VISIT&lt;/div&gt;&lt;div&gt;&lt;b&gt;ASK ID&lt;/b&gt;. YOU CAN DENY&lt;/div&gt;&lt;div&gt;ACCESS IF NO ID IS&lt;/div&gt;&lt;div&gt;PRODUCED&lt;br&gt;&lt;/div&gt;" style="text;html=1;align=center;verticalAlign=middle;resizable=0;points=[];autosize=1;strokeColor=none;fillColor=none;" parent="1" vertex="1">
          <mxGeometry x="500" y="790" width="160" height="70" as="geometry" />
        </mxCell>
        <mxCell id="YUtBcPBd4sIPZbYD7p29-46" value="Condition" style="rhombus;whiteSpace=wrap;html=1;fontColor=#000000;fillColor=#ffffc0;strokeColor=#ff0000;" parent="1" vertex="1">
          <mxGeometry x="360" y="920" width="80" height="40" as="geometry" />
        </mxCell>
        <mxCell id="YUtBcPBd4sIPZbYD7p29-47" value="" style="edgeStyle=orthogonalEdgeStyle;html=1;align=left;verticalAlign=bottom;endArrow=open;endSize=8;strokeColor=#ff0000;rounded=0;entryX=0.493;entryY=0;entryDx=0;entryDy=0;entryPerimeter=0;" parent="1" source="YUtBcPBd4sIPZbYD7p29-46" target="YUtBcPBd4sIPZbYD7p29-55" edge="1">
          <mxGeometry x="-0.2549" y="10" relative="1" as="geometry">
            <mxPoint x="563" y="990" as="targetPoint" />
            <mxPoint as="offset" />
            <Array as="points">
              <mxPoint x="489" y="940" />
            </Array>
          </mxGeometry>
        </mxCell>
        <mxCell id="YUtBcPBd4sIPZbYD7p29-48" value="" style="edgeStyle=orthogonalEdgeStyle;html=1;align=left;verticalAlign=top;endArrow=open;endSize=8;strokeColor=#ff0000;rounded=0;entryX=0.48;entryY=-0.025;entryDx=0;entryDy=0;entryPerimeter=0;" parent="1" target="YUtBcPBd4sIPZbYD7p29-52" edge="1">
          <mxGeometry x="0.2" y="60" relative="1" as="geometry">
            <mxPoint x="300" y="940" as="targetPoint" />
            <mxPoint x="360" y="940" as="sourcePoint" />
            <Array as="points">
              <mxPoint x="302" y="940" />
            </Array>
            <mxPoint as="offset" />
          </mxGeometry>
        </mxCell>
        <mxCell id="YUtBcPBd4sIPZbYD7p29-49" value="IF VISITING RESIDENT" style="text;html=1;align=center;verticalAlign=middle;resizable=0;points=[];autosize=1;strokeColor=none;fillColor=none;" parent="1" vertex="1">
          <mxGeometry x="210" y="910" width="150" height="30" as="geometry" />
        </mxCell>
        <mxCell id="YUtBcPBd4sIPZbYD7p29-50" value="IF SPECIAL REQUEST, RESIDENT INFO / VIDEO FOOTAGE" style="text;html=1;align=center;verticalAlign=middle;resizable=0;points=[];autosize=1;strokeColor=none;fillColor=none;" parent="1" vertex="1">
          <mxGeometry x="440" y="910" width="360" height="30" as="geometry" />
        </mxCell>
        <mxCell id="YUtBcPBd4sIPZbYD7p29-51" style="edgeStyle=orthogonalEdgeStyle;rounded=0;orthogonalLoop=1;jettySize=auto;html=1;entryX=0.5;entryY=0;entryDx=0;entryDy=0;strokeColor=#FF0000;" parent="1" source="YUtBcPBd4sIPZbYD7p29-52" target="YUtBcPBd4sIPZbYD7p29-57" edge="1">
          <mxGeometry relative="1" as="geometry" />
        </mxCell>
        <mxCell id="YUtBcPBd4sIPZbYD7p29-52" value="STEP" style="shape=umlFrame;whiteSpace=wrap;html=1;pointerEvents=0;" parent="1" vertex="1">
          <mxGeometry x="230" y="970" width="150" height="80" as="geometry" />
        </mxCell>
        <mxCell id="YUtBcPBd4sIPZbYD7p29-53" value="CHECK FOR WARRANT" style="text;html=1;align=center;verticalAlign=middle;resizable=0;points=[];autosize=1;strokeColor=none;fillColor=none;" parent="1" vertex="1">
          <mxGeometry x="225" y="1010" width="160" height="30" as="geometry" />
        </mxCell>
        <mxCell id="YUtBcPBd4sIPZbYD7p29-54" style="edgeStyle=orthogonalEdgeStyle;rounded=0;orthogonalLoop=1;jettySize=auto;html=1;entryX=0.487;entryY=0;entryDx=0;entryDy=0;strokeColor=#FF0000;entryPerimeter=0;" parent="1" source="YUtBcPBd4sIPZbYD7p29-55" target="YUtBcPBd4sIPZbYD7p29-66" edge="1">
          <mxGeometry relative="1" as="geometry">
            <mxPoint x="622" y="1080" as="targetPoint" />
          </mxGeometry>
        </mxCell>
        <mxCell id="YUtBcPBd4sIPZbYD7p29-55" value="STEP" style="shape=umlFrame;whiteSpace=wrap;html=1;pointerEvents=0;" parent="1" vertex="1">
          <mxGeometry x="415" y="970" width="150" height="80" as="geometry" />
        </mxCell>
        <mxCell id="YUtBcPBd4sIPZbYD7p29-56" value="CHECK FOR WARRANT" style="text;html=1;align=center;verticalAlign=middle;resizable=0;points=[];autosize=1;strokeColor=none;fillColor=none;" parent="1" vertex="1">
          <mxGeometry x="410" y="1010" width="160" height="30" as="geometry" />
        </mxCell>
        <mxCell id="YUtBcPBd4sIPZbYD7p29-57" value="Condition" style="rhombus;whiteSpace=wrap;html=1;fontColor=#000000;fillColor=#ffffc0;strokeColor=#ff0000;" parent="1" vertex="1">
          <mxGeometry x="217" y="1080" width="80" height="40" as="geometry" />
        </mxCell>
        <mxCell id="YUtBcPBd4sIPZbYD7p29-58" value="" style="edgeStyle=orthogonalEdgeStyle;html=1;align=left;verticalAlign=bottom;endArrow=open;endSize=8;strokeColor=#ff0000;rounded=0;entryX=0.477;entryY=0.022;entryDx=0;entryDy=0;entryPerimeter=0;" parent="1" source="YUtBcPBd4sIPZbYD7p29-57" edge="1">
          <mxGeometry x="-0.2549" y="10" relative="1" as="geometry">
            <mxPoint x="329" y="1152" as="targetPoint" />
            <mxPoint as="offset" />
            <Array as="points">
              <mxPoint x="329" y="1100" />
            </Array>
          </mxGeometry>
        </mxCell>
        <mxCell id="YUtBcPBd4sIPZbYD7p29-59" value="" style="edgeStyle=orthogonalEdgeStyle;html=1;align=left;verticalAlign=top;endArrow=open;endSize=8;strokeColor=#ff0000;rounded=0;entryX=0.446;entryY=0;entryDx=0;entryDy=0;entryPerimeter=0;" parent="1" edge="1">
          <mxGeometry x="0.2" y="60" relative="1" as="geometry">
            <mxPoint x="185" y="1150" as="targetPoint" />
            <mxPoint x="217" y="1100" as="sourcePoint" />
            <Array as="points">
              <mxPoint x="185" y="1100" />
            </Array>
            <mxPoint as="offset" />
          </mxGeometry>
        </mxCell>
        <mxCell id="YUtBcPBd4sIPZbYD7p29-60" value="NO WARRANT" style="text;html=1;align=center;verticalAlign=middle;resizable=0;points=[];autosize=1;strokeColor=none;fillColor=none;" parent="1" vertex="1">
          <mxGeometry x="115" y="1070" width="110" height="30" as="geometry" />
        </mxCell>
        <mxCell id="YUtBcPBd4sIPZbYD7p29-61" value="WARRANT" style="text;html=1;align=center;verticalAlign=middle;resizable=0;points=[];autosize=1;strokeColor=none;fillColor=none;" parent="1" vertex="1">
          <mxGeometry x="300" y="1070" width="80" height="30" as="geometry" />
        </mxCell>
        <mxCell id="YUtBcPBd4sIPZbYD7p29-62" value="STEP" style="shape=umlFrame;whiteSpace=wrap;html=1;pointerEvents=0;" parent="1" vertex="1">
          <mxGeometry x="95" y="1150" width="150" height="150" as="geometry" />
        </mxCell>
        <mxCell id="uDDLXl4MgYYLWT-9D9km-9" style="edgeStyle=orthogonalEdgeStyle;rounded=0;orthogonalLoop=1;jettySize=auto;html=1;entryX=0.118;entryY=0.3;entryDx=0;entryDy=0;entryPerimeter=0;strokeColor=#FF0000;" parent="1" source="YUtBcPBd4sIPZbYD7p29-63" target="uDDLXl4MgYYLWT-9D9km-1" edge="1">
          <mxGeometry relative="1" as="geometry" />
        </mxCell>
        <mxCell id="YUtBcPBd4sIPZbYD7p29-63" value="&lt;div&gt;CALL AND ANNOUNCE &lt;br&gt;&lt;/div&gt;&lt;div&gt;THE OFFICER TO THE &lt;br&gt;&lt;/div&gt;&lt;div&gt;RESIDENT. DENY &lt;br&gt;&lt;/div&gt;&lt;div&gt;ACCESS IF RESIDENT &lt;br&gt;&lt;/div&gt;&lt;div&gt;DENIES TO SEE THE &lt;br&gt;&lt;/div&gt;&lt;div&gt;OFFICER&lt;br&gt;&lt;/div&gt;" style="text;html=1;align=center;verticalAlign=middle;resizable=0;points=[];autosize=1;strokeColor=none;fillColor=none;" parent="1" vertex="1">
          <mxGeometry x="95" y="1190" width="150" height="100" as="geometry" />
        </mxCell>
        <mxCell id="uDDLXl4MgYYLWT-9D9km-11" style="edgeStyle=orthogonalEdgeStyle;rounded=0;orthogonalLoop=1;jettySize=auto;html=1;entryX=0.25;entryY=0.5;entryDx=0;entryDy=0;entryPerimeter=0;strokeColor=#FF0000;" parent="1" source="YUtBcPBd4sIPZbYD7p29-64" target="uDDLXl4MgYYLWT-9D9km-1" edge="1">
          <mxGeometry relative="1" as="geometry" />
        </mxCell>
        <mxCell id="YUtBcPBd4sIPZbYD7p29-64" value="STEP" style="shape=umlFrame;whiteSpace=wrap;html=1;pointerEvents=0;" parent="1" vertex="1">
          <mxGeometry x="260" y="1150" width="150" height="150" as="geometry" />
        </mxCell>
        <mxCell id="YUtBcPBd4sIPZbYD7p29-65" value="&lt;div&gt;DO NOT CALL/INFORM &lt;br&gt;&lt;/div&gt;&lt;div&gt;RESIDENT. GIVE &lt;br&gt;&lt;/div&gt;&lt;div&gt; COOPERATION TO&amp;nbsp;&lt;/div&gt;&lt;div&gt;OFFICER AND PROVIDE&lt;/div&gt;&lt;div&gt;MASTER KEY IF &lt;br&gt;&lt;/div&gt;&lt;div&gt;ASKED&lt;br&gt;&lt;/div&gt;" style="text;html=1;align=center;verticalAlign=middle;resizable=0;points=[];autosize=1;strokeColor=none;fillColor=none;" parent="1" vertex="1">
          <mxGeometry x="255" y="1190" width="160" height="100" as="geometry" />
        </mxCell>
        <mxCell id="uDDLXl4MgYYLWT-9D9km-12" style="edgeStyle=orthogonalEdgeStyle;rounded=0;orthogonalLoop=1;jettySize=auto;html=1;entryX=0.713;entryY=0.5;entryDx=0;entryDy=0;entryPerimeter=0;strokeColor=#FF0000;" parent="1" source="YUtBcPBd4sIPZbYD7p29-66" target="uDDLXl4MgYYLWT-9D9km-1" edge="1">
          <mxGeometry relative="1" as="geometry" />
        </mxCell>
        <mxCell id="YUtBcPBd4sIPZbYD7p29-66" value="STEP" style="shape=umlFrame;whiteSpace=wrap;html=1;pointerEvents=0;" parent="1" vertex="1">
          <mxGeometry x="445" y="1150" width="150" height="150" as="geometry" />
        </mxCell>
        <mxCell id="YUtBcPBd4sIPZbYD7p29-67" value="&lt;div&gt;DO NOT GIVE ANY &lt;br&gt;&lt;/div&gt;&lt;div&gt;INFO / FOOTAGE.&lt;/div&gt;&lt;div&gt;IMMEDIATELY CALL PM &lt;br&gt;&lt;/div&gt;&lt;div&gt;AND FOLLOW &lt;br&gt;&lt;/div&gt;&lt;div&gt;INSTRUCTIONS&lt;br&gt;&lt;/div&gt;" style="text;html=1;align=center;verticalAlign=middle;resizable=0;points=[];autosize=1;strokeColor=none;fillColor=none;" parent="1" vertex="1">
          <mxGeometry x="440" y="1210" width="160" height="90" as="geometry" />
        </mxCell>
        <mxCell id="YUtBcPBd4sIPZbYD7p29-68" value="&lt;div&gt;&lt;b&gt;REGARDLESS OF &lt;br&gt;&lt;/b&gt;&lt;/div&gt;&lt;div&gt;&lt;b&gt;WARRANT: &lt;br&gt;&lt;/b&gt;&lt;/div&gt;" style="text;html=1;align=center;verticalAlign=middle;resizable=0;points=[];autosize=1;strokeColor=none;fillColor=none;" parent="1" vertex="1">
          <mxGeometry x="455" y="1180" width="130" height="40" as="geometry" />
        </mxCell>
        <mxCell id="YUtBcPBd4sIPZbYD7p29-69" value="" style="edgeStyle=orthogonalEdgeStyle;rounded=0;orthogonalLoop=1;jettySize=auto;html=1;strokeColor=#FF0000;" parent="1" source="YUtBcPBd4sIPZbYD7p29-70" target="YUtBcPBd4sIPZbYD7p29-71" edge="1">
          <mxGeometry relative="1" as="geometry" />
        </mxCell>
        <mxCell id="YUtBcPBd4sIPZbYD7p29-70" value="SPECIAL CONDITION" style="rhombus;whiteSpace=wrap;html=1;fontColor=#000000;fillColor=#ffffc0;strokeColor=#ff0000;" parent="1" vertex="1">
          <mxGeometry x="650" y="290" width="115" height="80" as="geometry" />
        </mxCell>
        <mxCell id="uDDLXl4MgYYLWT-9D9km-14" style="edgeStyle=orthogonalEdgeStyle;rounded=0;orthogonalLoop=1;jettySize=auto;html=1;entryX=0.891;entryY=0.1;entryDx=0;entryDy=0;entryPerimeter=0;strokeColor=#FF0000;exitX=0.489;exitY=1.005;exitDx=0;exitDy=0;exitPerimeter=0;" parent="1" source="YUtBcPBd4sIPZbYD7p29-71" target="uDDLXl4MgYYLWT-9D9km-1" edge="1">
          <mxGeometry relative="1" as="geometry">
            <Array as="points">
              <mxPoint x="705" y="900" />
              <mxPoint x="810" y="900" />
              <mxPoint x="810" y="1340" />
              <mxPoint x="601" y="1340" />
            </Array>
          </mxGeometry>
        </mxCell>
        <mxCell id="YUtBcPBd4sIPZbYD7p29-71" value="STEP" style="shape=umlFrame;whiteSpace=wrap;html=1;pointerEvents=0;" parent="1" vertex="1">
          <mxGeometry x="592.5" y="430" width="230" height="200" as="geometry" />
        </mxCell>
        <mxCell id="YUtBcPBd4sIPZbYD7p29-72" value="&lt;div&gt;SOME PM&#39;S PREFER TO HANDLE&lt;/div&gt;&lt;div&gt;&amp;nbsp;POLICE REQUEST / CASES &lt;br&gt;&lt;/div&gt;&lt;div&gt;PERSONALLY. IF INSTRUCTED BY &lt;br&gt;&lt;/div&gt;&lt;div&gt;SITE PM, DO NOT ENGAGE IN &lt;br&gt;&lt;/div&gt;&lt;div&gt;ANY NON-EMERGENCY POLICE&amp;nbsp;&lt;/div&gt;&lt;div&gt;SITUATIONS. IMMEDIATELY CALL PM, &lt;br&gt;&lt;/div&gt;&lt;div&gt;AND WAIT FOR THEM TO ARRIVE&amp;nbsp;&lt;/div&gt;&lt;div&gt;AND HANDLE THE OFFICER.&lt;/div&gt;&lt;div&gt;&lt;br&gt;&lt;/div&gt;&lt;div&gt;FOLLOW INSTRUCTIONS FROM&lt;/div&gt;&lt;div&gt;PM.&lt;br&gt;&lt;/div&gt;" style="text;html=1;align=center;verticalAlign=middle;resizable=0;points=[];autosize=1;strokeColor=none;fillColor=none;" parent="1" vertex="1">
          <mxGeometry x="582.5" y="460" width="240" height="170" as="geometry" />
        </mxCell>
        <mxCell id="uDDLXl4MgYYLWT-9D9km-8" style="edgeStyle=orthogonalEdgeStyle;rounded=0;orthogonalLoop=1;jettySize=auto;html=1;strokeColor=#FF0000;" parent="1" source="uDDLXl4MgYYLWT-9D9km-1" target="uDDLXl4MgYYLWT-9D9km-7" edge="1">
          <mxGeometry relative="1" as="geometry" />
        </mxCell>
        <mxCell id="uDDLXl4MgYYLWT-9D9km-1" value="" style="shape=line;html=1;strokeWidth=6;strokeColor=#ff0000;" parent="1" vertex="1">
          <mxGeometry x="200" y="1450" width="450" height="10" as="geometry" />
        </mxCell>
        <mxCell id="uDDLXl4MgYYLWT-9D9km-4" value="" style="edgeStyle=orthogonalEdgeStyle;html=1;verticalAlign=bottom;endArrow=open;endSize=8;strokeColor=#ff0000;rounded=0;" parent="1" target="uDDLXl4MgYYLWT-9D9km-5" edge="1">
          <mxGeometry relative="1" as="geometry">
            <mxPoint x="425" y="1670" as="targetPoint" />
            <mxPoint x="424.9999999999999" y="1600" as="sourcePoint" />
          </mxGeometry>
        </mxCell>
        <mxCell id="uDDLXl4MgYYLWT-9D9km-5" value="" style="ellipse;html=1;shape=endState;fillColor=#000000;strokeColor=#ff0000;" parent="1" vertex="1">
          <mxGeometry x="410" y="1655" width="30" height="30" as="geometry" />
        </mxCell>
        <mxCell id="uDDLXl4MgYYLWT-9D9km-6" value="MAKE A DETAILED INCIDENT REPORT WITH TIME STAMPS &lt;br&gt;AND DETAILS OF THE OFFICER." style="text;html=1;align=center;verticalAlign=middle;resizable=0;points=[];autosize=1;strokeColor=none;fillColor=none;" parent="1" vertex="1">
          <mxGeometry x="245" y="1560" width="360" height="40" as="geometry" />
        </mxCell>
        <mxCell id="uDDLXl4MgYYLWT-9D9km-7" value="STEP" style="shape=umlFrame;whiteSpace=wrap;html=1;pointerEvents=0;" parent="1" vertex="1">
          <mxGeometry x="245" y="1530" width="360" height="70" as="geometry" />
        </mxCell>
      </root>
    </mxGraphModel>
  </diagram>
</mxfile>
